<?xml version="1.0" encoding="utf-8"?>
<!-- Generator: Adobe Illustrator 25.0.1, SVG Export Plug-In . SVG Version: 6.00 Build 0)  -->
<svg version="1.1" id="Layer_1" xmlns="http://www.w3.org/2000/svg" xmlns:xlink="http://www.w3.org/1999/xlink" x="0px" y="0px"
	 viewBox="0 0 841.9 595.3" style="enable-background:new 0 0 841.9 595.3;" xml:space="preserve">
<style type="text/css">
	.st0{enable-background:new    ;}
	.st1{fill:#FFFFFF;}
</style>
<g id="Group_2" transform="translate(-36 -103)">
	<g class="st0">
		<path class="st1" d="M82.8,201.7v17h0.5c4.5-6.5,10-11.5,16.4-15.1c6.4-3.6,13.7-5.4,22-5.4c7.9,0,15.2,1.5,21.8,4.6
			c6.6,3.1,11.6,8.5,15,16.3c3.7-5.5,8.8-10.4,15.2-14.6c6.4-4.2,14-6.3,22.8-6.3c6.7,0,12.8,0.8,18.5,2.4
			c5.7,1.6,10.5,4.2,14.6,7.8c4.1,3.6,7.2,8.2,9.5,14c2.3,5.8,3.4,12.7,3.4,20.8v84.2h-34.6v-71.3c0-4.2-0.2-8.2-0.5-11.9
			c-0.3-3.7-1.2-7-2.7-9.7c-1.5-2.8-3.6-4.9-6.4-6.6c-2.8-1.6-6.7-2.4-11.6-2.4s-8.8,0.9-11.8,2.8c-3,1.9-5.4,4.3-7.1,7.3
			c-1.7,3-2.8,6.4-3.4,10.2c-0.6,3.8-0.9,7.7-0.9,11.6v70.1H129v-70.6c0-3.7-0.1-7.4-0.2-11.1c-0.2-3.7-0.9-7-2.1-10.1
			c-1.2-3.1-3.2-5.6-6.1-7.4c-2.8-1.9-7-2.8-12.5-2.8c-1.6,0-3.8,0.4-6.4,1.1c-2.7,0.7-5.3,2.1-7.8,4.1c-2.5,2-4.7,5-6.4,8.8
			c-1.8,3.8-2.7,8.8-2.7,15v73H50.2V201.7H82.8z"/>
		<path class="st1" d="M306.7,297.3c5.2,5,12.7,7.5,22.4,7.5c7,0,13-1.7,18-5.2c5-3.5,8.1-7.2,9.2-11.1h30.4
			c-4.9,15.1-12.3,25.9-22.4,32.4c-10.1,6.5-22.2,9.7-36.5,9.7c-9.9,0-18.8-1.6-26.8-4.7c-8-3.2-14.7-7.7-20.2-13.5
			c-5.5-5.8-9.8-12.8-12.8-20.9c-3-8.1-4.5-17-4.5-26.8c0-9.4,1.5-18.2,4.6-26.3c3.1-8.1,7.5-15.1,13.1-21
			c5.7-5.9,12.4-10.6,20.3-14c7.9-3.4,16.6-5.1,26.2-5.1c10.7,0,20,2.1,28,6.2c7.9,4.1,14.5,9.7,19.6,16.7c5.1,7,8.8,14.9,11.1,23.8
			c2.3,8.9,3.1,18.3,2.4,28h-90.8C298.7,284.2,301.5,292.3,306.7,297.3z M345.7,231.1c-4.1-4.5-10.4-6.8-18.9-6.8
			c-5.5,0-10.1,0.9-13.7,2.8c-3.7,1.9-6.6,4.2-8.8,6.9c-2.2,2.8-3.7,5.7-4.6,8.8c-0.9,3.1-1.4,5.8-1.6,8.3h56.2
			C352.8,242.3,349.9,235.7,345.7,231.1z"/>
	</g>
	<g id="Group_1" transform="translate(-95 52)">
		<path id="Exclusion_1" class="st1" d="M212.2,510.3c-44.8,0-81.2-36.2-81.2-81c0-32.6,19.5-62.1,49.6-74.8
			c41.3-17.4,88.9,1.9,106.3,43.2c17.4,41.3-1.9,88.9-43.2,106.3C233.8,508.2,223,510.3,212.2,510.3z M212.5,371.1l-53.5,94h107
			L212.5,371.1z"/>
		<g class="st0">
			<path class="st1" d="M352.1,371.7V395h0.5c1.6-3.9,3.8-7.5,6.6-10.8c2.8-3.3,5.9-6.2,9.5-8.5c3.6-2.3,7.4-4.2,11.4-5.5
				c4.1-1.3,8.3-1.9,12.7-1.9c2.3,0,4.8,0.4,7.5,1.2v32.1c-1.6-0.3-3.6-0.6-5.8-0.9c-2.3-0.2-4.5-0.4-6.6-0.4
				c-6.3,0-11.7,1.1-16.1,3.2c-4.4,2.1-7.9,5-10.6,8.6c-2.7,3.7-4.6,7.9-5.7,12.8c-1.1,4.9-1.7,10.1-1.7,15.8v56.7h-34.6V371.7
				H352.1z"/>
			<path class="st1" d="M414.9,352.2v-28.5h34.6v28.5H414.9z M449.4,371.7v125.8h-34.6V371.7H449.4z"/>
			<path class="st1" d="M513.7,467.3c5.2,5,12.7,7.5,22.4,7.5c7,0,13-1.7,18-5.2c5-3.5,8.1-7.2,9.2-11.1h30.4
				c-4.9,15.1-12.3,25.9-22.4,32.4c-10.1,6.5-22.2,9.7-36.5,9.7c-9.9,0-18.8-1.6-26.8-4.7c-8-3.2-14.7-7.7-20.2-13.5
				c-5.5-5.8-9.8-12.8-12.8-20.9c-3-8.1-4.5-17-4.5-26.8c0-9.4,1.5-18.2,4.6-26.3c3.1-8.1,7.5-15.1,13.1-21
				c5.7-5.9,12.4-10.6,20.3-14c7.9-3.4,16.6-5.1,26.2-5.1c10.7,0,20,2.1,28,6.2c7.9,4.1,14.5,9.7,19.6,16.7
				c5.1,7,8.8,14.9,11.1,23.8c2.3,8.9,3.1,18.3,2.4,28h-90.8C505.7,454.2,508.5,462.3,513.7,467.3z M552.8,401.1
				c-4.1-4.5-10.4-6.8-18.9-6.8c-5.5,0-10.1,0.9-13.7,2.8c-3.7,1.9-6.6,4.2-8.8,6.9c-2.2,2.8-3.7,5.7-4.6,8.8
				c-0.9,3.1-1.4,5.8-1.6,8.3h56.2C559.8,412.3,556.9,405.7,552.8,401.1z"/>
			<path class="st1" d="M649.2,371.7v17.5h0.7c4.4-7.3,10.1-12.6,17-15.9c7-3.3,14.1-5,21.4-5c9.2,0,16.8,1.3,22.8,3.8
				c5.9,2.5,10.6,6,14,10.5c3.4,4.5,5.8,9.9,7.2,16.3c1.4,6.4,2.1,13.5,2.1,21.3v77.4h-34.6v-71.1c0-10.4-1.6-18.1-4.9-23.2
				c-3.2-5.1-9-7.7-17.3-7.7c-9.4,0-16.2,2.8-20.4,8.4c-4.2,5.6-6.3,14.8-6.3,27.6v65.9h-34.6V371.7H649.2z"/>
			<path class="st1" d="M829.8,371.7v23.1h-25.3v62.3c0,5.8,1,9.7,2.9,11.7c1.9,1.9,5.8,2.9,11.7,2.9c1.9,0,3.8-0.1,5.6-0.2
				c1.8-0.2,3.5-0.4,5.1-0.7v26.8c-2.9,0.5-6.2,0.8-9.7,1c-3.6,0.2-7.1,0.2-10.5,0.2c-5.4,0-10.4-0.4-15.2-1.1
				c-4.8-0.7-9-2.1-12.7-4.3c-3.7-2.1-6.5-5.1-8.6-9c-2.1-3.9-3.2-9-3.2-15.3v-74.2H749v-23.1h20.9V334h34.6v37.7H829.8z"/>
			<path class="st1" d="M844.9,410.4c0.5-8.1,2.5-14.8,6.1-20.2c3.6-5.4,8.1-9.7,13.6-12.9c5.5-3.2,11.7-5.6,18.6-6.9
				c6.9-1.4,13.8-2.1,20.8-2.1c6.3,0,12.7,0.4,19.2,1.3c6.5,0.9,12.4,2.6,17.8,5.2c5.4,2.6,9.7,6.2,13.1,10.8
				c3.4,4.6,5.1,10.7,5.1,18.4v65.5c0,5.7,0.3,11.1,1,16.3c0.6,5.2,1.8,9.1,3.4,11.7h-35c-0.7-1.9-1.2-3.9-1.6-6
				c-0.4-2-0.7-4.1-0.9-6.2c-5.5,5.7-12,9.7-19.5,11.9c-7.5,2.3-15.1,3.4-22.9,3.4c-6,0-11.6-0.7-16.8-2.2
				c-5.2-1.5-9.7-3.7-13.6-6.8c-3.9-3.1-6.9-7-9.1-11.7c-2.2-4.7-3.3-10.3-3.3-16.8c0-7.1,1.3-13,3.8-17.6c2.5-4.6,5.8-8.3,9.7-11.1
				c4-2.8,8.5-4.8,13.6-6.2c5.1-1.4,10.3-2.5,15.5-3.3c5.2-0.8,10.3-1.5,15.3-1.9c5-0.5,9.5-1.2,13.4-2.2s7-2.4,9.2-4.3
				c2.3-1.9,3.3-4.6,3.2-8.2c0-3.7-0.6-6.7-1.8-8.9c-1.2-2.2-2.8-3.9-4.9-5.1c-2-1.2-4.4-2-7.1-2.4c-2.7-0.4-5.6-0.6-8.6-0.6
				c-6.8,0-12.2,1.5-16.1,4.4c-3.9,2.9-6.2,7.8-6.8,14.6H844.9z M924.7,435.9c-1.5,1.3-3.3,2.3-5.5,3s-4.5,1.3-7.1,1.8
				c-2.5,0.5-5.2,0.9-7.9,1.2c-2.8,0.3-5.5,0.7-8.3,1.2c-2.6,0.5-5.2,1.1-7.7,1.9c-2.5,0.8-4.7,1.9-6.6,3.3
				c-1.9,1.4-3.4,3.1-4.5,5.2c-1.1,2.1-1.7,4.8-1.7,8c0,3.1,0.6,5.7,1.7,7.8c1.1,2.1,2.7,3.8,4.6,5c1.9,1.2,4.2,2.1,6.8,2.6
				c2.6,0.5,5.3,0.7,8,0.7c6.8,0,12.1-1.1,15.8-3.4c3.7-2.3,6.5-5,8.3-8.2c1.8-3.2,2.9-6.4,3.3-9.6c0.4-3.2,0.6-5.8,0.6-7.8V435.9z"
				/>
		</g>
	</g>
</g>
</svg>
